<?xml version="1.0" encoding="UTF-8"?>
<svg xmlns="http://www.w3.org/2000/svg" version="1.1" viewBox="0 0 229 38">
  <defs>
    <style>
      .cls-1 {
        fill: #fff;
      }
    </style>
  </defs>
  <!-- Generator: Adobe Illustrator 28.6.0, SVG Export Plug-In . SVG Version: 1.2.0 Build 709)  -->
  <g>
    <g id="Layer_1">
      <g>
      <path class="cls-1" d="M15.9,8c2.1,1.1,3.8,2.7,4.9,4.7s1.7,4.4,1.7,7.2-.5,5.1-1.7,7.1c-1.1,2-2.8,3.6-4.9,4.6-2.1,1-4.7,1.6-7.6,1.6H0V6.4h8.3c3,0,5.5.5,7.6,1.6ZM16.2,27.6c1.8-1.8,2.7-4.4,2.7-7.7s-.9-6-2.7-7.9c-1.8-1.9-4.5-2.8-7.9-2.8H3.5v21.1h4.8c3.5,0,6.1-.9,7.9-2.7h0Z"/>
      <path class="cls-1" d="M30.6,12.1v21.1h-3.5V12.1h3.5Z"/>
      <path class="cls-1" d="M39.7,32.7c-1.3-.6-2.3-1.3-3-2.3s-1.2-2.1-1.2-3.4h3.5c0,1.1.6,1.9,1.5,2.6s2,1,3.5,1,2.4-.3,3.1-.9c.8-.6,1.2-1.3,1.2-2.2s-.4-1.6-1.2-2.1c-.8-.4-2.1-.9-3.8-1.3-1.6-.4-2.8-.8-3.8-1.3-1-.4-1.8-1.1-2.5-1.9s-1.1-1.9-1.1-3.3.3-2.1,1-3,1.6-1.6,2.7-2.1c1.2-.5,2.5-.8,4-.8,2.3,0,4.2.6,5.6,1.8,1.4,1.2,2.2,2.8,2.3,4.9h-3.5c0-1.1-.5-2-1.3-2.7s-1.9-1-3.2-1-2.3.3-3,.8-1.1,1.2-1.1,2.1.2,1.3.7,1.7c.4.5,1,.8,1.7,1.1.7.3,1.6.6,2.8.9,1.5.4,2.7.8,3.7,1.2.9.4,1.8,1,2.4,1.8.7.8,1,1.8,1.1,3.1,0,1.2-.3,2.2-1,3.1-.6.9-1.5,1.6-2.7,2.2-1.2.5-2.5.8-4,.8-1.7,0-3.1-.2-4.4-.8h0Z"/>
      <path class="cls-1" d="M56.6,16.9c.9-1.6,2.1-2.9,3.6-3.8,1.6-.9,3.3-1.4,5.3-1.4s4.7.6,6.4,1.9,2.8,3,3.3,5.2h-3.8c-.4-1.3-1.1-2.3-2.1-3-1-.7-2.3-1.1-3.9-1.1s-3.6.7-4.8,2.1c-1.2,1.4-1.8,3.3-1.8,5.8s.6,4.5,1.8,5.9,2.8,2.1,4.8,2.1,2.8-.4,3.8-1.1,1.7-1.7,2.1-3.1h3.8c-.6,2.2-1.7,3.9-3.4,5.2-1.7,1.3-3.8,1.9-6.3,1.9s-3.8-.4-5.3-1.4c-1.6-.9-2.8-2.2-3.6-3.8-.9-1.6-1.3-3.6-1.3-5.8,0-2.1.6-4,1.4-5.6h0Z"/>
      <path class="cls-1" d="M83.8,32.2c-1.6-.9-2.9-2.2-3.8-3.8-.9-1.7-1.4-3.6-1.4-5.8s.5-4.1,1.4-5.7c.9-1.7,2.2-2.9,3.8-3.8,1.6-.9,3.4-1.3,5.4-1.3s3.8.4,5.4,1.3c1.6.9,2.9,2.2,3.8,3.8s1.4,3.6,1.4,5.7-.5,4.1-1.4,5.8c-1,1.7-2.3,2.9-3.9,3.8-1.6.9-3.5,1.4-5.5,1.4-1.9,0-3.6-.5-5.2-1.4h0ZM92.7,29.6c1.1-.6,2-1.5,2.7-2.7s1-2.6,1-4.3-.3-3.1-1-4.3c-.7-1.2-1.5-2.1-2.6-2.6-1.1-.6-2.2-.9-3.5-.9s-2.5.3-3.5.9c-1.1.6-1.9,1.5-2.6,2.6-.6,1.2-1,2.6-1,4.3s.3,3.2.9,4.4c.6,1.2,1.5,2.1,2.5,2.6,1,.6,2.2.9,3.5.9s2.4-.3,3.6-.9h0Z"/>
      <path class="cls-1" d="M112.3,30l6.5-17.9h3.7l-8.3,21.1h-4.1l-8.1-21.1h3.8l6.5,17.9h0Z"/>
      <path class="cls-1" d="M145.1,24h-16.8c.1,2.1.8,3.7,2.1,4.9,1.3,1.2,2.9,1.8,4.7,1.8s2.8-.4,3.8-1.1,1.7-1.6,2.1-2.8h3.8c-.6,2-1.7,3.7-3.4,4.9-1.7,1.3-3.8,1.9-6.3,1.9s-3.8-.4-5.4-1.4c-1.6-.9-2.8-2.2-3.7-3.8-.9-1.7-1.3-3.6-1.3-5.8s.4-4.1,1.3-5.7,2.1-2.9,3.7-3.8c1.6-.9,3.4-1.3,5.4-1.3s3.8.4,5.3,1.3c1.5.9,2.7,2.1,3.6,3.6.8,1.5,1.2,3.3,1.2,5.2,0,.6,0,1.3-.1,2.1h0ZM140.8,17.7c-.6-1-1.4-1.7-2.4-2.2-1-.5-2.1-.8-3.4-.8s-3.3.6-4.5,1.7-2,2.7-2.1,4.7h13.3c0-1.3-.3-2.5-.9-3.4h0Z"/>
      <path class="cls-1" d="M156,12.7c1.1-.7,2.5-1,4.2-1v3.6h-.9c-3.9,0-5.9,2.1-5.9,6.4v11.5h-3.5V12.1h3.5v3.4c.6-1.2,1.5-2.1,2.6-2.8h0Z"/>
      </g>
      <path class="cls-1" d="M226.4,0h-56.6c-1.5,0-2.7,1.2-2.7,2.7v32.7c0,1.5,1.2,2.7,2.7,2.7h56.6c1.5,0,2.6-1.2,2.6-2.7V2.7c0-1.5-1.2-2.7-2.6-2.7ZM178.5,22.2c.3,1.1.7,2,1.3,2.8.6.8,1.4,1.5,2.3,2,.9.4,2,.7,3.2.7h.2l9.5.2-4.1,6.1h-6c-.4,0-.8,0-1.2,0-1.6-.2-3-.5-4.3-1-1.7-.7-3.2-1.7-4.4-3-1.3-1.3-2.2-2.9-2.8-4.7s-.9-3.8-.9-6.1.2-4.3.9-6.1,1.6-3.4,2.8-4.7,2.7-2.3,4.4-3c1.3-.5,2.7-.9,4.3-1,.4,0,.8,0,1.2,0h6l4.1,6.1h-9.7c-1.2,0-2.3.2-3.2.7-1,.5-1.7,1.2-2.3,2-.6.8-1,1.8-1.3,2.8-.3,1.1-.4,2.1-.4,3.2s0,2.2.4,3.2ZM218.3,33.8l-6.7-9.8-6.4,9.8h-8l10.1-14.8-10-14.8h7.9l6.1,9.8,6.2-9.8h8.1l-10,14.8,10.4,14.8h-7.7Z"/>
    </g>
  </g>
</svg>
