<svg width="229" height="38" viewBox="0 0 229 38" fill="none" xmlns="http://www.w3.org/2000/svg">
<path d="M226.35 0H169.753C168.289 0 167.103 1.19058 167.103 2.65924V35.3408C167.103 36.8094 168.289 38 169.753 38H226.35C227.813 38 229 36.8094 229 35.3408V2.65924C229 1.19058 227.813 0 226.35 0Z" fill="url(#paint0_linear_224_3357)"/>
<path d="M185.474 27.6652C185.413 27.6652 185.353 27.6652 185.293 27.6577C184.066 27.635 183.004 27.3932 182.108 26.9097C181.167 26.4036 180.407 25.7463 179.827 24.9229C179.24 24.107 178.81 23.1777 178.539 22.1427C178.268 21.1153 178.133 20.0652 178.133 18.9924C178.133 17.9121 178.268 16.862 178.539 15.8421C178.81 14.8072 179.24 13.8779 179.827 13.062C180.414 12.2461 181.175 11.5813 182.108 11.0751C183.004 10.5917 184.073 10.3499 185.308 10.3272C185.368 10.3272 185.421 10.3197 185.474 10.3197H194.975L190.865 4.17773H185.097V4.19284C185.022 4.19284 184.962 4.2004 184.886 4.2004C184.48 4.21551 184.073 4.22306 183.682 4.26084C182.108 4.39682 180.678 4.71412 179.39 5.24294C177.651 5.95308 176.175 6.95785 174.963 8.2497C173.751 9.54911 172.832 11.1054 172.207 12.9185C171.582 14.7316 171.266 16.7638 171.266 19C171.266 21.2362 171.575 23.2684 172.207 25.0815C172.832 26.8946 173.751 28.4509 174.963 29.7503C176.175 31.0497 177.651 32.0469 179.39 32.7571C180.678 33.2783 182.108 33.6032 183.682 33.7392C184.073 33.7769 184.48 33.7921 184.886 33.7996C184.962 33.7996 185.022 33.8072 185.097 33.8072V33.8223H190.865L194.975 27.6803H185.474V27.6652Z" fill="white"/>
<path d="M218.286 33.8071L211.563 24.0087L205.133 33.8071H197.084L207.301 18.9849L197.332 4.17017H205.261L211.352 14.0063L217.526 4.17017H225.582L215.568 18.9471L226.019 33.8071H218.286Z" fill="white"/>
<path d="M15.9167 8.00045C18.055 9.09588 19.6888 10.6521 20.8332 12.6843C21.9701 14.7166 22.5424 17.1038 22.5424 19.8537C22.5424 22.6036 21.9701 24.9834 20.8332 27.0005C19.6963 29.0175 18.055 30.5587 15.9167 31.6239C13.7784 32.6891 11.2486 33.2255 8.3348 33.2255H0V6.36108H8.3348C11.2561 6.36108 13.7784 6.90502 15.9167 8.00045ZM16.2404 27.5746C18.055 25.7388 18.966 23.1627 18.966 19.8462C18.966 16.5297 18.0474 13.9006 16.2179 12.0271C14.3883 10.1535 11.7606 9.21675 8.32727 9.21675H3.49354V30.3321H8.3348C11.7907 30.3321 14.4259 29.4179 16.248 27.5746H16.2404Z" fill="black"/>
<path d="M30.6438 12.1025V33.2178H27.1502V12.1025H30.6438Z" fill="black"/>
<path d="M39.7014 32.7345C38.4214 32.183 37.4125 31.4124 36.6671 30.4227C35.9217 29.4331 35.5151 28.2999 35.4398 27.0156H39.0463C39.1517 28.0657 39.6411 28.9269 40.522 29.5993C41.403 30.2641 42.5625 30.604 44.0005 30.604C45.3332 30.604 46.3797 30.3094 47.1477 29.7201C47.9157 29.1309 48.2997 28.383 48.2997 27.484C48.2997 26.5849 47.8931 25.8748 47.0724 25.4215C46.2518 24.9758 44.9869 24.5301 43.2702 24.0919C41.7117 23.684 40.4317 23.2609 39.4529 22.8378C38.4666 22.4148 37.6233 21.7877 36.9156 20.9492C36.2078 20.1181 35.8615 19.0152 35.8615 17.6553C35.8615 16.575 36.1777 15.5853 36.8177 14.6863C37.4577 13.7873 38.3687 13.0772 39.5433 12.5484C40.7178 12.0195 42.0655 11.7551 43.5714 11.7551C45.8979 11.7551 47.7802 12.3444 49.2183 13.5305C50.6488 14.709 51.4168 16.3333 51.5222 18.3881H48.0286C47.9533 17.2851 47.5091 16.4012 46.7035 15.7289C45.8979 15.0641 44.8137 14.7241 43.4584 14.7241C42.2011 14.7241 41.2072 14.9961 40.4618 15.5325C39.7164 16.0688 39.3475 16.779 39.3475 17.6478C39.3475 18.3428 39.5734 18.9094 40.0176 19.3627C40.4618 19.816 41.0265 20.171 41.7041 20.443C42.3818 20.715 43.3229 21.0172 44.5276 21.3496C46.0409 21.7575 47.2682 22.1655 48.2169 22.5659C49.1655 22.9663 49.9787 23.5631 50.6563 24.3563C51.3339 25.1496 51.6878 26.1921 51.7104 27.4764C51.7104 28.6323 51.3867 29.6748 50.7542 30.5965C50.1142 31.5181 49.2107 32.2434 48.0437 32.7722C46.8767 33.3011 45.544 33.5655 44.0306 33.5655C42.4194 33.5655 40.9738 33.2859 39.6938 32.7345H39.7014Z" fill="black"/>
<path d="M56.6345 16.8999C57.5079 15.268 58.7126 14.0064 60.2636 13.1074C61.8146 12.2084 63.5839 11.7551 65.5792 11.7551C68.1617 11.7551 70.2924 12.3822 71.9714 13.6438C73.6504 14.9054 74.7572 16.6506 75.2918 18.8867H71.5272C71.1658 17.6024 70.4731 16.5901 69.4341 15.8422C68.3951 15.0943 67.1076 14.7241 65.5716 14.7241C63.5764 14.7241 61.9652 15.4116 60.7304 16.7865C59.5031 18.1615 58.8857 20.103 58.8857 22.6263C58.8857 25.1496 59.5031 27.1364 60.7304 28.5189C61.9576 29.909 63.5689 30.5965 65.5716 30.5965C67.1076 30.5965 68.3876 30.2339 69.4115 29.5162C70.4355 28.7985 71.1357 27.771 71.5197 26.4339H75.2843C74.7196 28.5945 73.5977 30.317 71.9037 31.6164C70.2171 32.9158 68.1014 33.5655 65.5641 33.5655C63.5689 33.5655 61.792 33.1197 60.2485 32.2132C58.6975 31.3142 57.4928 30.045 56.6194 28.3981C55.7461 26.7511 55.3169 24.8247 55.3169 22.6187C55.3169 20.4128 55.7536 18.5317 56.6194 16.8999H56.6345Z" fill="black"/>
<path d="M83.7621 32.2132C82.1659 31.3142 80.9086 30.0374 79.9975 28.383C79.0865 26.7285 78.6348 24.8096 78.6348 22.6263C78.6348 20.443 79.1016 18.5619 80.0352 16.9074C80.9688 15.253 82.2412 13.9762 83.8525 13.0923C85.4637 12.2084 87.2707 11.7627 89.266 11.7627C91.2612 11.7627 93.0682 12.2084 94.6794 13.0923C96.2907 13.9762 97.5631 15.2454 98.4967 16.8848C99.4304 18.5317 99.8972 20.443 99.8972 22.6263C99.8972 24.8096 99.4153 26.7285 98.4591 28.383C97.4954 30.0374 96.2003 31.3142 94.559 32.2132C92.9176 33.1122 91.1031 33.5655 89.1079 33.5655C87.1126 33.5655 85.3508 33.1198 83.7546 32.2132H83.7621ZM92.6541 29.5917C93.7534 29.0025 94.6418 28.111 95.3194 26.9325C95.9971 25.7539 96.3359 24.311 96.3359 22.6188C96.3359 20.9265 96.0046 19.4836 95.3345 18.305C94.6719 17.1265 93.7985 16.2426 92.7219 15.6685C91.6452 15.0868 90.4782 14.7997 89.2283 14.7997C87.9785 14.7997 86.7738 15.0868 85.7122 15.6685C84.6506 16.2426 83.7998 17.1265 83.1598 18.305C82.5198 19.4836 82.2036 20.9265 82.2036 22.6188C82.2036 24.311 82.5198 25.7917 83.1447 26.9703C83.7697 28.1488 84.6129 29.0327 85.6595 29.6068C86.706 30.181 87.858 30.4756 89.1154 30.4756C90.3728 30.4756 91.5473 30.181 92.6466 29.5917H92.6541Z" fill="black"/>
<path d="M112.35 29.9769L118.878 12.1025H122.605L114.346 33.2178H110.272L102.013 12.1025H105.777L112.343 29.9769H112.35Z" fill="black"/>
<path d="M145.148 23.9635H128.327C128.455 26.041 129.163 27.6653 130.458 28.8362C131.753 30.0072 133.319 30.5889 135.164 30.5889C136.677 30.5889 137.935 30.2338 138.943 29.5313C139.952 28.8287 140.668 27.8843 141.074 26.6983H144.839C144.274 28.7305 143.152 30.3774 141.458 31.6466C139.772 32.9157 137.671 33.5503 135.164 33.5503C133.169 33.5503 131.384 33.1046 129.811 32.1981C128.237 31.299 127.002 30.0223 126.106 28.3678C125.21 26.7134 124.759 24.7945 124.759 22.6112C124.759 20.4279 125.195 18.5165 126.061 16.8696C126.934 15.2227 128.154 13.9611 129.728 13.0772C131.301 12.1933 133.116 11.7476 135.164 11.7476C137.212 11.7476 138.928 12.1857 140.464 13.0545C142 13.9309 143.182 15.1321 144.018 16.6581C144.846 18.1841 145.268 19.9142 145.268 21.8406C145.268 22.5054 145.23 23.2156 145.155 23.9559L145.148 23.9635ZM140.773 17.6629C140.186 16.7034 139.388 15.9706 138.371 15.4645C137.362 14.9658 136.241 14.709 135.013 14.709C133.244 14.709 131.746 15.2756 130.503 16.4012C129.261 17.5344 128.553 19.0983 128.373 21.1002H141.662C141.662 19.7631 141.368 18.6148 140.781 17.6553L140.773 17.6629Z" fill="black"/>
<path d="M155.99 12.7145C157.126 12.0497 158.519 11.7097 160.153 11.7097V15.3284H159.235C155.319 15.3284 153.362 17.4588 153.362 21.7272V33.2103H149.868V12.1026H153.362V15.5324C153.979 14.3236 154.853 13.3869 155.99 12.722V12.7145Z" fill="black"/>
<defs>
<linearGradient id="paint0_linear_224_3357" x1="189.118" y1="38.7177" x2="206.782" y2="-0.00789342" gradientUnits="userSpaceOnUse">
<stop stop-color="#005CD0"/>
<stop offset="1" stop-color="#2B8DFF"/>
</linearGradient>
</defs>
</svg>
